<svg width="46" height="46" viewBox="0 0 46 46" fill="none" xmlns="http://www.w3.org/2000/svg">
<path fill-rule="evenodd" clip-rule="evenodd" d="M23 5C19.8517 4.99942 16.7584 5.8246 14.0286 7.39316C11.2989 8.96173 9.02835 11.2188 7.44356 13.9391C5.85877 16.6595 5.01519 19.7479 4.99703 22.8961C4.97886 26.0444 5.78674 29.1423 7.34003 31.8807C8.3899 30.5163 9.73949 29.4116 11.2845 28.652C12.8294 27.8923 14.5284 27.4982 16.25 27.5H29.75C31.4716 27.4982 33.1706 27.8923 34.7156 28.652C36.2606 29.4116 37.6101 30.5163 38.66 31.8807C40.2133 29.1423 41.0212 26.0444 41.003 22.8961C40.9849 19.7479 40.1413 16.6595 38.5565 13.9391C36.9717 11.2188 34.7011 8.96173 31.9714 7.39316C29.2417 5.8246 26.1483 4.99942 23 5ZM40.8718 36.671C43.8801 32.7492 45.5073 27.9427 45.5 23C45.5 10.5733 35.4268 0.5 23 0.5C10.5733 0.5 0.500025 10.5733 0.500025 23C0.492597 27.9428 2.11981 32.7493 5.12828 36.671L5.11703 36.7115L5.91578 37.6407C8.02602 40.1079 10.6461 42.0881 13.5955 43.4449C16.545 44.8018 19.7535 45.5029 23 45.5C27.5615 45.5084 32.0167 44.1228 35.7688 41.5288C37.3684 40.4236 38.8188 39.1168 40.0843 37.6407L40.883 36.7115L40.8718 36.671ZM23 9.5C21.2098 9.5 19.4929 10.2112 18.2271 11.477C16.9612 12.7429 16.25 14.4598 16.25 16.25C16.25 18.0402 16.9612 19.7571 18.2271 21.023C19.4929 22.2888 21.2098 23 23 23C24.7902 23 26.5071 22.2888 27.773 21.023C29.0389 19.7571 29.75 18.0402 29.75 16.25C29.75 14.4598 29.0389 12.7429 27.773 11.477C26.5071 10.2112 24.7902 9.5 23 9.5Z" fill="black"/>
</svg>
