<svg width="44" height="39" viewBox="0 0 44 39" fill="none" xmlns="http://www.w3.org/2000/svg">
<path d="M3.875 32.9375H40.125V3.25H7.5C6.53859 3.25 5.61656 3.57924 4.93674 4.16529C4.25692 4.75134 3.875 5.5462 3.875 6.375V32.9375ZM7.5 0.125H41.9375C42.4182 0.125 42.8792 0.28962 43.2191 0.582646C43.559 0.875671 43.75 1.2731 43.75 1.6875V34.5C43.75 34.9144 43.559 35.3118 43.2191 35.6049C42.8792 35.8979 42.4182 36.0625 41.9375 36.0625H2.0625L0.25 38.8719V6.375C0.25 4.7174 1.01384 3.12769 2.37348 1.95558C3.73311 0.78348 5.57718 0.125 7.5 0.125Z" fill="black"/>
</svg>
