<svg width="38" height="41" viewBox="0 0 38 41" fill="none" xmlns="http://www.w3.org/2000/svg">
<path d="M36.5425 16.3033L21.5519 1.8579L21.5219 1.82919C20.8329 1.18559 19.9329 0.828644 18.9991 0.828644C18.0652 0.828644 17.1652 1.18559 16.4763 1.82919L16.4444 1.8579L1.4575 16.3033C1.07744 16.6623 0.774031 17.0975 0.56626 17.5816C0.358488 18.0657 0.250823 18.5884 0.25 19.117V36.8125C0.25 37.8278 0.645088 38.8015 1.34835 39.5194C2.05161 40.2373 3.00544 40.6406 4 40.6406H13C13.9946 40.6406 14.9484 40.2373 15.6517 39.5194C16.3549 38.8015 16.75 37.8278 16.75 36.8125V28.3906H21.25V36.8125C21.25 37.8278 21.6451 38.8015 22.3483 39.5194C23.0516 40.2373 24.0054 40.6406 25 40.6406H34C34.9946 40.6406 35.9484 40.2373 36.6517 39.5194C37.3549 38.8015 37.75 37.8278 37.75 36.8125V19.117C37.7492 18.5884 37.6415 18.0657 37.4337 17.5816C37.226 17.0975 36.9226 16.6623 36.5425 16.3033ZM33.25 36.0469H25.75V27.625C25.75 27.1223 25.653 26.6245 25.4645 26.16C25.2761 25.6956 24.9999 25.2736 24.6517 24.9181C24.3034 24.5626 23.89 24.2807 23.4351 24.0883C22.9801 23.8959 22.4925 23.7969 22 23.7969H16C15.0054 23.7969 14.0516 24.2002 13.3483 24.9181C12.6451 25.636 12.25 26.6097 12.25 27.625V36.0469H4.75V19.4481L19 5.71474L33.25 19.4481V36.0469Z" fill="black"/>
</svg>
